<svg xmlns="http://www.w3.org/2000/svg" viewBox="0 0 391.28 81.27"><defs><style>.cls-1{fill:#1c3664;}.cls-2{fill:#1c3764;}.cls-3{fill:#fff;stroke:#1c3664;stroke-width:4.32px;}.cls-3,.cls-4,.cls-5{stroke-miterlimit:10;}.cls-4,.cls-5{fill:none;stroke:#33c6f4;}.cls-4{stroke-width:1.39px;}.cls-5{stroke-width:0.72px;}</style></defs><title>traverse</title><g id="Layer_2" data-name="Layer 2"><g id="Layer_1-2" data-name="Layer 1"><path class="cls-1" d="M111,25.45V52.76h-4.76V25.45H96.91V20.74h23.42v4.71Z"/><path class="cls-1" d="M158.3,36.52a9.3,9.3,0,0,1-5.17,3.16l6.54,13.08h-5.52l-6.34-12.67h-7.22V52.76h-4.75v-32h14a13.44,13.44,0,0,1,4,.57,9.53,9.53,0,0,1,3.27,1.74,8.28,8.28,0,0,1,2.24,3,10.25,10.25,0,0,1,.82,4.28A9.65,9.65,0,0,1,158.3,36.52Zm-4.46-9.93a5.71,5.71,0,0,0-3.94-1.32h-9.31V35.56h9.31a5.9,5.9,0,0,0,3.92-1.26,4.77,4.77,0,0,0,1.5-3.87A4.89,4.89,0,0,0,153.84,26.59Z"/><path class="cls-1" d="M197.18,52.76l-2.7-7.59H181.67L179,52.76h-5l11.53-32h5.08l11.66,32ZM190.45,33.5c-.18-.58-.39-1.22-.64-1.92s-.48-1.4-.7-2.1-.45-1.35-.65-1.95-.34-1.06-.43-1.39c-.09.33-.23.8-.41,1.39s-.38,1.24-.6,1.92-.43,1.4-.66,2.13-.45,1.39-.66,2l-2.56,7.31H193Z"/><path class="cls-1" d="M227.14,52.76h-5.08L211,20.74h5.21l6.68,20.4.5,1.53c.19.57.36,1.12.53,1.67s.32,1.06.46,1.53.23.85.29,1.13c.06-.28.16-.65.3-1.13s.29-1,.46-1.53.34-1.11.53-1.69.34-1.1.5-1.56L233,20.74h5.13Z"/><path class="cls-1" d="M252.66,52.76v-32h20.59v4.71H257.42v7.82h9.2V38h-9.2V48.05h16.52v4.71Z"/><path class="cls-1" d="M312.41,36.52a9.3,9.3,0,0,1-5.17,3.16l6.54,13.08h-5.52l-6.35-12.67H294.7V52.76H290v-32h14a13.44,13.44,0,0,1,4,.57,9.53,9.53,0,0,1,3.27,1.74,8.28,8.28,0,0,1,2.24,3,10.25,10.25,0,0,1,.82,4.28A9.65,9.65,0,0,1,312.41,36.52ZM308,26.59A5.71,5.71,0,0,0,304,25.27h-9.3V35.56H304a5.92,5.92,0,0,0,3.93-1.26,4.77,4.77,0,0,0,1.5-3.87A4.89,4.89,0,0,0,308,26.59Z"/><path class="cls-1" d="M351.58,47.5a7.82,7.82,0,0,1-2.15,3.06,9.81,9.81,0,0,1-3.68,2,17.71,17.71,0,0,1-5.3.71A14.67,14.67,0,0,1,334,51.87a15.06,15.06,0,0,1-5-3.78l3.43-3.34a11.8,11.8,0,0,0,3.82,2.77,10.51,10.51,0,0,0,4.5,1c4.42,0,6.63-1.55,6.63-4.67a3.66,3.66,0,0,0-.36-1.64,3.81,3.81,0,0,0-1.24-1.35,11,11,0,0,0-2.24-1.17,35.55,35.55,0,0,0-3.38-1.14,41.37,41.37,0,0,1-4.44-1.51,11.91,11.91,0,0,1-3.11-1.81,6.41,6.41,0,0,1-1.85-2.49,9.35,9.35,0,0,1-.62-3.61,8.27,8.27,0,0,1,.82-3.73,8.36,8.36,0,0,1,2.24-2.82,10.28,10.28,0,0,1,3.37-1.76,13.59,13.59,0,0,1,4.14-.61,14,14,0,0,1,5.81,1.14,16.79,16.79,0,0,1,4.66,3.2L347.86,28a10.16,10.16,0,0,0-3.3-2.31A10.65,10.65,0,0,0,340.4,25a5.8,5.8,0,0,0-4.09,1.19,3.71,3.71,0,0,0-1.26,2.79,3.13,3.13,0,0,0,1.42,2.72,10,10,0,0,0,2.15,1.12,36.06,36.06,0,0,0,3.43,1.14c1.58.49,3,1,4.27,1.51a12.54,12.54,0,0,1,3.23,1.88,7.45,7.45,0,0,1,2,2.61,8.4,8.4,0,0,1,.71,3.65A10.43,10.43,0,0,1,351.58,47.5Z"/><path class="cls-1" d="M368.62,52.76v-32h20.59v4.71H373.38v7.82h9.2V38h-9.2V48.05h16.51v4.71Z"/><path class="cls-2" d="M102.16,65.6v7.16h-1.25V65.6H98.47V64.36h6.14V65.6Z"/><path class="cls-2" d="M116.38,68.5a2.47,2.47,0,0,1-1.35.83l1.71,3.43h-1.45l-1.66-3.33h-1.89v3.33h-1.25v-8.4h3.68a3.49,3.49,0,0,1,1,.15,2.52,2.52,0,0,1,.86.45,2.25,2.25,0,0,1,.59.79,2.7,2.7,0,0,1,.21,1.12A2.51,2.51,0,0,1,116.38,68.5Zm-1.17-2.61a1.49,1.49,0,0,0-1-.34h-2.44v2.7h2.44a1.57,1.57,0,0,0,1-.33,1.26,1.26,0,0,0,.39-1A1.3,1.3,0,0,0,115.21,65.89Z"/><path class="cls-2" d="M128.39,72.76l-.7-2h-3.36l-.7,2h-1.31l3-8.4h1.33l3.06,8.4Zm-1.76-5.05c0-.16-.1-.32-.17-.51l-.18-.55c-.06-.18-.12-.35-.17-.51l-.12-.37c0,.09-.06.21-.1.37l-.16.5-.17.56c-.07.19-.12.37-.18.52l-.67,1.92h2.59Z"/><path class="cls-2" d="M140.79,72.76l-3.35-5.27c-.1-.16-.22-.34-.34-.55s-.22-.37-.28-.48v.91c0,.19,0,.39,0,.58v4.81H135.6v-8.4h1.29l3.19,5.12.19.3.2.34.17.32.14.23V70.3c0-.18,0-.36,0-.56s0-.39,0-.58v-4.8H142v8.4Z"/><path class="cls-2" d="M153.83,71.38a2.17,2.17,0,0,1-.57.8,2.46,2.46,0,0,1-1,.52,4.52,4.52,0,0,1-1.4.19,3.76,3.76,0,0,1-1.68-.37,3.85,3.85,0,0,1-1.3-1l.9-.87a3.16,3.16,0,0,0,1,.72,2.8,2.8,0,0,0,1.18.28q1.74,0,1.74-1.23a.88.88,0,0,0-.1-.43,1,1,0,0,0-.32-.36,2.93,2.93,0,0,0-.59-.3,7.62,7.62,0,0,0-.89-.3,11,11,0,0,1-1.16-.4,3,3,0,0,1-.82-.47,1.76,1.76,0,0,1-.48-.66,2.37,2.37,0,0,1-.16-.94,2.13,2.13,0,0,1,.8-1.72,2.73,2.73,0,0,1,.88-.46,3.5,3.5,0,0,1,1.09-.16,3.65,3.65,0,0,1,1.52.3,4.49,4.49,0,0,1,1.23.84l-.89.9a2.65,2.65,0,0,0-.87-.61,2.79,2.79,0,0,0-1.09-.2,1.57,1.57,0,0,0-1.07.31,1,1,0,0,0-.33.74,1,1,0,0,0,.08.39,1,1,0,0,0,.29.32,2.4,2.4,0,0,0,.56.29,7.46,7.46,0,0,0,.91.3c.41.13.78.27,1.12.4a3.38,3.38,0,0,1,.84.49,2,2,0,0,1,.54.69,2.28,2.28,0,0,1,.18,1A2.86,2.86,0,0,1,153.83,71.38Z"/><path class="cls-2" d="M166.12,68.13a2.28,2.28,0,0,1-.57.82,2.34,2.34,0,0,1-.88.51,3.65,3.65,0,0,1-1.12.17h-2.19v3.13h-1.25v-8.4h3.51a3.4,3.4,0,0,1,1.08.17,2.36,2.36,0,0,1,.86.49,2.43,2.43,0,0,1,.56.83,2.87,2.87,0,0,1,.2,1.14A2.9,2.9,0,0,1,166.12,68.13Zm-1.47-2.21a1.44,1.44,0,0,0-1-.37h-2.25v2.89h2.25a1.39,1.39,0,0,0,1.07-.39A1.48,1.48,0,0,0,165,67,1.41,1.41,0,0,0,164.65,65.92Z"/><path class="cls-2" d="M178.65,70.33a4.19,4.19,0,0,1-.74,1.37,3.33,3.33,0,0,1-1.13.88,3.37,3.37,0,0,1-1.47.31,3.48,3.48,0,0,1-1.45-.3,3.24,3.24,0,0,1-1.13-.88,4,4,0,0,1-.72-1.36,5.51,5.51,0,0,1-.26-1.78,5.84,5.84,0,0,1,.26-1.78,4.19,4.19,0,0,1,.74-1.37,3.26,3.26,0,0,1,2.59-1.19,3.5,3.5,0,0,1,1.46.3,3.33,3.33,0,0,1,1.13.87,4.1,4.1,0,0,1,.72,1.36,5.61,5.61,0,0,1,.26,1.79A5.84,5.84,0,0,1,178.65,70.33Zm-1.2-3a2.81,2.81,0,0,0-.48-1,2.17,2.17,0,0,0-.74-.62,1.93,1.93,0,0,0-.93-.22,2,2,0,0,0-.92.21,2.16,2.16,0,0,0-.71.61,3,3,0,0,0-.47,1,4.66,4.66,0,0,0-.17,1.3,4.28,4.28,0,0,0,.18,1.29,2.89,2.89,0,0,0,.48,1,2,2,0,0,0,1.66.84,1.92,1.92,0,0,0,.92-.22,2.27,2.27,0,0,0,.72-.6,3,3,0,0,0,.47-1,4.76,4.76,0,0,0,.17-1.3A4.28,4.28,0,0,0,177.45,67.28Z"/><path class="cls-2" d="M190.79,68.5a2.47,2.47,0,0,1-1.35.83l1.71,3.43H189.7L188,69.43h-1.89v3.33H184.9v-8.4h3.68a3.49,3.49,0,0,1,1,.15,2.52,2.52,0,0,1,.86.45,2.25,2.25,0,0,1,.59.79,2.7,2.7,0,0,1,.21,1.12A2.51,2.51,0,0,1,190.79,68.5Zm-1.17-2.61a1.49,1.49,0,0,0-1-.34h-2.44v2.7h2.44a1.57,1.57,0,0,0,1-.33,1.26,1.26,0,0,0,.39-1A1.3,1.3,0,0,0,189.62,65.89Z"/><path class="cls-2" d="M200.33,65.6v7.16h-1.25V65.6h-2.44V64.36h6.14V65.6Z"/><path class="cls-2" d="M213.12,72.76l-.7-2h-3.36l-.7,2h-1.31l3-8.4h1.33l3.06,8.4Zm-1.76-5.05c-.05-.16-.1-.32-.17-.51l-.18-.55c-.06-.18-.12-.35-.17-.51s-.09-.28-.11-.37c0,.09-.07.21-.11.37l-.16.5c-.05.19-.11.37-.17.56s-.12.37-.18.52l-.67,1.92H212Z"/><path class="cls-2" d="M222.42,65.6v7.16h-1.24V65.6h-2.45V64.36h6.14V65.6Z"/><path class="cls-2" d="M230.81,72.76v-8.4h1.25v8.4Z"/><path class="cls-2" d="M245,70.33a4.19,4.19,0,0,1-.74,1.37,3.24,3.24,0,0,1-1.13.88,3.37,3.37,0,0,1-1.47.31,3.48,3.48,0,0,1-1.45-.3,3.33,3.33,0,0,1-1.13-.88,4,4,0,0,1-.72-1.36,6.22,6.22,0,0,1,0-3.56,4.38,4.38,0,0,1,.74-1.37,3.36,3.36,0,0,1,1.14-.88,3.31,3.31,0,0,1,1.45-.31,3.5,3.5,0,0,1,1.46.3,3.33,3.33,0,0,1,1.13.87,4.31,4.31,0,0,1,.73,1.36,5.91,5.91,0,0,1,.25,1.79A5.55,5.55,0,0,1,245,70.33Zm-1.19-3a3,3,0,0,0-.49-1,2.08,2.08,0,0,0-.74-.62,1.93,1.93,0,0,0-.93-.22,2,2,0,0,0-.92.21,2.16,2.16,0,0,0-.71.61,3,3,0,0,0-.47,1,4.66,4.66,0,0,0-.17,1.3,4.28,4.28,0,0,0,.18,1.29,2.89,2.89,0,0,0,.48,1,2.16,2.16,0,0,0,.73.62,2.06,2.06,0,0,0,.93.22,1.9,1.9,0,0,0,.92-.22,2.27,2.27,0,0,0,.72-.6,3,3,0,0,0,.47-1,4.76,4.76,0,0,0,.17-1.3A4.63,4.63,0,0,0,243.83,67.28Z"/><path class="cls-2" d="M256.46,72.76l-3.35-5.27c-.11-.16-.22-.34-.34-.55l-.29-.48v.37c0,.17,0,.35,0,.54s0,.39,0,.58v4.81h-1.23v-8.4h1.29l3.19,5.12c.05.09.12.19.18.3l.2.34.18.32.13.23v-.93c0-.2,0-.39,0-.58v-4.8h1.23v8.4Z"/><path class="cls-2" d="M277.78,72.76V67.91c0-.14,0-.29,0-.43s0-.26,0-.37v-.27c0,.12-.12.31-.22.57l-.31.75-2,4.73-2-4.73c-.1-.24-.21-.49-.31-.75s-.18-.45-.23-.57v.27c0,.11,0,.24,0,.37v5.28H271.5v-8.4h1.3l1.89,4.48.32.76c.12.27.2.5.26.67.06-.17.14-.39.25-.66s.21-.53.31-.77l1.85-4.48H279v8.4Z"/><path class="cls-2" d="M291,72.76l-.71-2h-3.36l-.7,2h-1.31l3-8.4h1.33l3.06,8.4Zm-1.77-5.05c-.05-.16-.1-.32-.17-.51l-.18-.55-.17-.51c-.05-.16-.09-.28-.11-.37,0,.09-.07.21-.11.37l-.16.5c-.05.19-.11.37-.17.56s-.12.37-.18.52l-.67,1.92h2.59Z"/><path class="cls-2" d="M303.35,72.76,300,67.49l-.34-.55-.28-.48v.37c0,.17,0,.35,0,.54v5.39h-1.22v-8.4h1.28l3.19,5.12.19.3.2.34a3,3,0,0,0,.18.32c.05.1.1.17.13.23V70.3c0-.18,0-.36,0-.56V64.36h1.22v8.4Z"/><path class="cls-2" d="M316.49,72.76l-.71-2h-3.36l-.69,2h-1.31l3-8.4h1.34l3.06,8.4Zm-1.76-5.05c-.05-.16-.11-.32-.17-.51s-.13-.36-.19-.55-.11-.35-.16-.51-.09-.28-.12-.37c0,.09-.06.21-.11.37s-.1.32-.15.5l-.18.56c-.06.19-.11.37-.17.52l-.67,1.92h2.59Z"/><path class="cls-2" d="M329.55,70.92a2.93,2.93,0,0,1-.66,1.07,2.67,2.67,0,0,1-1,.67,3.55,3.55,0,0,1-1.28.23,3.31,3.31,0,0,1-1.47-.32,3.23,3.23,0,0,1-1.12-.89,4.05,4.05,0,0,1-.71-1.37,5.69,5.69,0,0,1-.26-1.75,5.78,5.78,0,0,1,.26-1.75,4,4,0,0,1,.71-1.37,3.26,3.26,0,0,1,1.12-.9,3.31,3.31,0,0,1,1.47-.31,3.37,3.37,0,0,1,1.72.4,3,3,0,0,1,1.13,1.17l-1.1.68a2.36,2.36,0,0,0-.72-.75,2.21,2.21,0,0,0-2.72.58,4.63,4.63,0,0,0,0,4.49,1.94,1.94,0,0,0,1.69.83,2.08,2.08,0,0,0,.87-.16,1.6,1.6,0,0,0,.59-.41,1.77,1.77,0,0,0,.34-.6,2.39,2.39,0,0,0,.1-.71v0h-1.36V68.5h2.65v1A4.08,4.08,0,0,1,329.55,70.92Z"/><path class="cls-2" d="M335.79,72.76v-8.4h5.4V65.6H337v2.05h2.41v1.23H337v2.64h4.33v1.24Z"/><path class="cls-2" d="M353.66,72.76V67.48c0-.13,0-.26,0-.37s0-.2,0-.27c-.05.12-.12.31-.23.57s-.21.51-.31.75l-2,4.73-2-4.73-.31-.75c-.1-.26-.18-.45-.23-.57,0,.07,0,.16,0,.27s0,.24,0,.37,0,.29,0,.43v4.85h-1.19v-8.4h1.3l1.89,4.48.32.76c.11.27.19.5.25.67.07-.17.15-.39.25-.66s.21-.53.32-.77l1.85-4.48h1.34v8.4Z"/><path class="cls-2" d="M361.29,72.76v-8.4h5.4V65.6h-4.15v2.05H365v1.23h-2.41v2.64h4.33v1.24Z"/><path class="cls-2" d="M378.06,72.76l-3.34-5.27c-.11-.16-.22-.34-.35-.55s-.21-.37-.28-.48v.37c0,.17,0,.35,0,.54v5.39h-1.22v-8.4h1.28l3.2,5.12.18.3.2.34a3,3,0,0,0,.18.32l.13.23v-.93c0-.2,0-.39,0-.58v-4.8h1.22v8.4Z"/><path class="cls-2" d="M388.83,65.6v7.16h-1.25V65.6h-2.45V64.36h6.15V65.6Z"/><path class="cls-3" d="M2.16,40.63A38.48,38.48,0,1,1,40.64,79.11,38.47,38.47,0,0,1,2.16,40.63Z"/><path class="cls-4" d="M15.1,40.63A25.54,25.54,0,1,1,40.64,66.17,25.53,25.53,0,0,1,15.1,40.63Z"/><path class="cls-5" d="M31.05,40.63a9.59,9.59,0,1,1,9.59,9.59A9.58,9.58,0,0,1,31.05,40.63Z"/><path class="cls-1" d="M47.69,43.93l30.7-3,0-1.44-30.61-2a7.79,7.79,0,0,0-14.31.13l-30.26,2,0,1.44,30.45,3a7.81,7.81,0,0,0,3.75,3.69l2.55,31.23h1.44L43.9,47.7A7.8,7.8,0,0,0,47.69,43.93Z"/></g></g></svg>